<?xml version="1.0" encoding="utf-8"?><svg width="auto" height="3920" style="overflow:visible " version="1.1" xmlns="http://www.w3.org/2000/svg"><rect x="20" y="20" width="200" height="40" style="fill:white;stroke:black;stroke-width:1" /><text x="30" y="30" font-size="10" style="fill:blue">rutas</text><rect x="240" y="20" width="200" height="40" style="fill:white;stroke:black;stroke-width:1" /><text x="250" y="30" font-size="10" style="fill:blue">ruta</text><path d="M220 40 C240 40 220 40 240 40" style="fill:transparent;stroke:black" /><text x="250" y="40" font-size="8" style="fill:black">fechaInicio: Cualquier día</text><text x="250" y="50" font-size="8" style="fill:black">horaInicio: 7:30</text><rect x="460" y="20" width="200" height="40" style="fill:white;stroke:black;stroke-width:1" /><text x="470" y="30" font-size="10" style="fill:blue">nombre</text><path d="M440 40 C460 40 440 40 460 40" style="fill:transparent;stroke:black" /><rect x="526" y="20" width="137" height="40" style="fill:green;stroke:black;stroke-width:1" /><text x="536" y="30" font-size="8" style="fill:white">Túnez capital</text><rect x="460" y="70" width="200" height="40" style="fill:white;stroke:black;stroke-width:1" /><text x="470" y="80" font-size="10" style="fill:blue">tipo</text><path d="M440 40 C460 40 440 90 460 90" style="fill:transparent;stroke:black" /><rect x="526" y="70" width="137" height="40" style="fill:green;stroke:black;stroke-width:1" /><text x="536" y="80" font-size="8" style="fill:white">Arquitectónica</text><rect x="460" y="120" width="200" height="40" style="fill:white;stroke:black;stroke-width:1" /><text x="470" y="130" font-size="10" style="fill:blue">medioTransporte</text><path d="M440 40 C460 40 440 140 460 140" style="fill:transparent;stroke:black" /><rect x="526" y="120" width="137" height="40" style="fill:green;stroke:black;stroke-width:1" /><text x="536" y="130" font-size="8" style="fill:white">A pier</text><rect x="460" y="170" width="200" height="40" style="fill:white;stroke:black;stroke-width:1" /><text x="470" y="180" font-size="10" style="fill:blue">duracion</text><path d="M440 40 C460 40 440 190 460 190" style="fill:transparent;stroke:black" /><rect x="526" y="170" width="137" height="40" style="fill:green;stroke:black;stroke-width:1" /><text x="536" y="180" font-size="8" style="fill:white">1/2 día</text><rect x="460" y="220" width="200" height="40" style="fill:white;stroke:black;stroke-width:1" /><text x="470" y="230" font-size="10" style="fill:blue">agencia</text><path d="M440 40 C460 40 440 240 460 240" style="fill:transparent;stroke:black" /><rect x="526" y="220" width="137" height="40" style="fill:green;stroke:black;stroke-width:1" /><text x="536" y="230" font-size="8" style="fill:white">Sin agencia</text><rect x="460" y="270" width="200" height="40" style="fill:white;stroke:black;stroke-width:1" /><text x="470" y="280" font-size="10" style="fill:blue">descripcion</text><path d="M440 40 C460 40 440 290 460 290" style="fill:transparent;stroke:black" /><rect x="526" y="270" width="137" height="40" style="fill:green;stroke:black;stroke-width:1" /><text x="536" y="280" font-size="8" style="fill:white">
            La capital tunecina, es, podríamos decir, un tercio mediterránea, un tercio europea y un tercio africana. Esta ciudad tiene algunos de los contrastes más fuertes e interesantes del norte de África.
             La mezcla de culturas e influencias es clara y un paseo por sus calles lo demuestra.
        </text><rect x="460" y="320" width="200" height="40" style="fill:white;stroke:black;stroke-width:1" /><text x="470" y="330" font-size="10" style="fill:blue">personasAdecuadas</text><path d="M440 40 C460 40 440 340 460 340" style="fill:transparent;stroke:black" /><rect x="526" y="320" width="137" height="40" style="fill:green;stroke:black;stroke-width:1" /><text x="536" y="330" font-size="8" style="fill:white">Todo tipo de personas</text><rect x="460" y="370" width="200" height="40" style="fill:white;stroke:black;stroke-width:1" /><text x="470" y="380" font-size="10" style="fill:blue">lugarInicio</text><path d="M440 40 C460 40 440 390 460 390" style="fill:transparent;stroke:black" /><rect x="526" y="370" width="137" height="40" style="fill:green;stroke:black;stroke-width:1" /><text x="536" y="380" font-size="8" style="fill:white">Túnez</text><rect x="460" y="420" width="200" height="40" style="fill:white;stroke:black;stroke-width:1" /><text x="470" y="430" font-size="10" style="fill:blue">direccionInicio</text><path d="M440 40 C460 40 440 440 460 440" style="fill:transparent;stroke:black" /><rect x="526" y="420" width="137" height="40" style="fill:green;stroke:black;stroke-width:1" /><text x="536" y="430" font-size="8" style="fill:white">30 Rue Jamaa Ez Zitouna, Tunis, Túnez</text><rect x="460" y="470" width="200" height="40" style="fill:white;stroke:black;stroke-width:1" /><text x="470" y="480" font-size="10" style="fill:blue">coordenadas</text><path d="M440 40 C460 40 440 490 460 490" style="fill:transparent;stroke:black" /><text x="470" y="490" font-size="8" style="fill:black">longitud: 36.79774470644965</text><text x="470" y="500" font-size="8" style="fill:black">latitud: 10.171288497323301</text><text x="470" y="510" font-size="8" style="fill:black">altitud: 4</text><rect x="460" y="520" width="200" height="40" style="fill:white;stroke:black;stroke-width:1" /><text x="470" y="530" font-size="10" style="fill:blue">referencia</text><path d="M440 40 C460 40 440 540 460 540" style="fill:transparent;stroke:black" /><rect x="526" y="520" width="137" height="40" style="fill:green;stroke:black;stroke-width:1" /><text x="536" y="530" font-size="8" style="fill:white">https://www.google.com/maps/place/Mezquita+Zitouna/@36.7955421,10.1698796,17z/data=!4m6!3m5!1s0x12fd34754f0de50d:0xd6055eb2c24a4f31!8m2!3d36.7973267!4d10.1712377!16s%2Fm%2F05f50wj?entry=ttu</text><rect x="460" y="570" width="200" height="40" style="fill:white;stroke:black;stroke-width:1" /><text x="470" y="580" font-size="10" style="fill:blue">referencia</text><path d="M440 40 C460 40 440 590 460 590" style="fill:transparent;stroke:black" /><rect x="526" y="570" width="137" height="40" style="fill:green;stroke:black;stroke-width:1" /><text x="536" y="580" font-size="8" style="fill:white">https://www.economiadigital.es/tendenciashoy/destinos/tunez-de-la-capital-al-desierto-en-un-roadtrip-de-10-dias_20076846_102.html</text><rect x="460" y="620" width="200" height="40" style="fill:white;stroke:black;stroke-width:1" /><text x="470" y="630" font-size="10" style="fill:blue">referencia</text><path d="M440 40 C460 40 440 640 460 640" style="fill:transparent;stroke:black" /><rect x="526" y="620" width="137" height="40" style="fill:green;stroke:black;stroke-width:1" /><text x="536" y="630" font-size="8" style="fill:white">https://sobretunez.com/2009/11/05/dar-ben-abdallah-el-museo-de-las-costumbres/</text><rect x="460" y="670" width="200" height="40" style="fill:white;stroke:black;stroke-width:1" /><text x="470" y="680" font-size="10" style="fill:blue">recomendacion</text><path d="M440 40 C460 40 440 690 460 690" style="fill:transparent;stroke:black" /><rect x="526" y="670" width="137" height="40" style="fill:green;stroke:black;stroke-width:1" /><text x="536" y="680" font-size="8" style="fill:white">8</text><rect x="460" y="720" width="200" height="40" style="fill:white;stroke:black;stroke-width:1" /><text x="470" y="730" font-size="10" style="fill:blue">hito</text><path d="M440 40 C460 40 440 740 460 740" style="fill:transparent;stroke:black" /><rect x="680" y="720" width="200" height="40" style="fill:white;stroke:black;stroke-width:1" /><text x="690" y="730" font-size="10" style="fill:blue">nombre</text><path d="M660 740 C680 740 660 740 680 740" style="fill:transparent;stroke:black" /><rect x="746" y="720" width="137" height="40" style="fill:green;stroke:black;stroke-width:1" /><text x="756" y="730" font-size="8" style="fill:white">Mezquita Zitouna</text><rect x="680" y="770" width="200" height="40" style="fill:white;stroke:black;stroke-width:1" /><text x="690" y="780" font-size="10" style="fill:blue">descripcion</text><path d="M660 740 C680 740 660 790 680 790" style="fill:transparent;stroke:black" /><rect x="746" y="770" width="137" height="40" style="fill:green;stroke:black;stroke-width:1" /><text x="756" y="780" font-size="8" style="fill:white">Mezquita histórica e importante universidad islámica, la más antigua de Túnez, con un minarete de 43 m.</text><rect x="680" y="820" width="200" height="40" style="fill:white;stroke:black;stroke-width:1" /><text x="690" y="830" font-size="10" style="fill:blue">coordenadas</text><path d="M660 740 C680 740 660 840 680 840" style="fill:transparent;stroke:black" /><text x="690" y="840" font-size="8" style="fill:black">longitud: 36.79774470644965</text><text x="690" y="850" font-size="8" style="fill:black">latitud: 10.171288497323301</text><text x="690" y="860" font-size="8" style="fill:black">altitud: 4</text><rect x="680" y="870" width="200" height="40" style="fill:white;stroke:black;stroke-width:1" /><text x="690" y="880" font-size="10" style="fill:blue">distanciaHitoAnterior</text><path d="M660 740 C680 740 660 890 680 890" style="fill:transparent;stroke:black" /><text x="690" y="890" font-size="8" style="fill:black">unidades: km</text><rect x="746" y="870" width="137" height="40" style="fill:green;stroke:black;stroke-width:1" /><text x="756" y="880" font-size="8" style="fill:white">0</text><rect x="680" y="920" width="200" height="40" style="fill:white;stroke:black;stroke-width:1" /><text x="690" y="930" font-size="10" style="fill:blue">foto</text><path d="M660 740 C680 740 660 940 680 940" style="fill:transparent;stroke:black" /><rect x="746" y="920" width="137" height="40" style="fill:green;stroke:black;stroke-width:1" /><text x="756" y="930" font-size="8" style="fill:white">multimedia/Mezquita.jpeg</text><rect x="460" y="1020" width="200" height="40" style="fill:white;stroke:black;stroke-width:1" /><text x="470" y="1030" font-size="10" style="fill:blue">hito</text><path d="M440 40 C460 40 440 1040 460 1040" style="fill:transparent;stroke:black" /><rect x="680" y="1020" width="200" height="40" style="fill:white;stroke:black;stroke-width:1" /><text x="690" y="1030" font-size="10" style="fill:blue">nombre</text><path d="M660 1040 C680 1040 660 1040 680 1040" style="fill:transparent;stroke:black" /><rect x="746" y="1020" width="137" height="40" style="fill:green;stroke:black;stroke-width:1" /><text x="756" y="1030" font-size="8" style="fill:white">Palacio Dar ben Abdallah</text><rect x="680" y="1070" width="200" height="40" style="fill:white;stroke:black;stroke-width:1" /><text x="690" y="1080" font-size="10" style="fill:blue">descripcion</text><path d="M660 1040 C680 1040 660 1090 680 1090" style="fill:transparent;stroke:black" /><rect x="746" y="1070" width="137" height="40" style="fill:green;stroke:black;stroke-width:1" /><text x="756" y="1080" font-size="8" style="fill:white">Es el museo de las artes y el patrimonio tradicional de Túnez. Su arquitectura es uno de los ejemplos más hermosos de las construcciones del siglo XVII, ubicado en el centro de la Medina de Túnez. En su colección se muestran la herencia de los años 
            y el nombre del museo es el del antiguo dueño del palacio en el que se encuentra instalado.</text><rect x="680" y="1120" width="200" height="40" style="fill:white;stroke:black;stroke-width:1" /><text x="690" y="1130" font-size="10" style="fill:blue">coordenadas</text><path d="M660 1040 C680 1040 660 1140 680 1140" style="fill:transparent;stroke:black" /><text x="690" y="1140" font-size="8" style="fill:black">longitud: 36.79444648864582</text><text x="690" y="1150" font-size="8" style="fill:black">latitud: 10.173785474972679</text><text x="690" y="1160" font-size="8" style="fill:black">altitud: 4</text><rect x="680" y="1170" width="200" height="40" style="fill:white;stroke:black;stroke-width:1" /><text x="690" y="1180" font-size="10" style="fill:blue">distanciaHitoAnterior</text><path d="M660 1040 C680 1040 660 1190 680 1190" style="fill:transparent;stroke:black" /><text x="690" y="1190" font-size="8" style="fill:black">unidades: km</text><rect x="746" y="1170" width="137" height="40" style="fill:green;stroke:black;stroke-width:1" /><text x="756" y="1180" font-size="8" style="fill:white">0.6</text><rect x="680" y="1220" width="200" height="40" style="fill:white;stroke:black;stroke-width:1" /><text x="690" y="1230" font-size="10" style="fill:blue">foto</text><path d="M660 1040 C680 1040 660 1240 680 1240" style="fill:transparent;stroke:black" /><rect x="746" y="1220" width="137" height="40" style="fill:green;stroke:black;stroke-width:1" /><text x="756" y="1230" font-size="8" style="fill:white">multimedia/Dar_Ben_Abdallah.jpg</text><rect x="240" y="1370" width="200" height="40" style="fill:white;stroke:black;stroke-width:1" /><text x="250" y="1380" font-size="10" style="fill:blue">ruta</text><path d="M220 40 C240 40 220 1390 240 1390" style="fill:transparent;stroke:black" /><text x="250" y="1390" font-size="8" style="fill:black">fechaInicio: Cualquier día</text><text x="250" y="1400" font-size="8" style="fill:black">horaInicio: 7:30</text><rect x="460" y="1370" width="200" height="40" style="fill:white;stroke:black;stroke-width:1" /><text x="470" y="1380" font-size="10" style="fill:blue">nombre</text><path d="M440 1390 C460 1390 440 1390 460 1390" style="fill:transparent;stroke:black" /><rect x="526" y="1370" width="137" height="40" style="fill:green;stroke:black;stroke-width:1" /><text x="536" y="1380" font-size="8" style="fill:white">Alrededores de Sfax</text><rect x="460" y="1420" width="200" height="40" style="fill:white;stroke:black;stroke-width:1" /><text x="470" y="1430" font-size="10" style="fill:blue">tipo</text><path d="M440 1390 C460 1390 440 1440 460 1440" style="fill:transparent;stroke:black" /><rect x="526" y="1420" width="137" height="40" style="fill:green;stroke:black;stroke-width:1" /><text x="536" y="1430" font-size="8" style="fill:white">Paisajística</text><rect x="460" y="1470" width="200" height="40" style="fill:white;stroke:black;stroke-width:1" /><text x="470" y="1480" font-size="10" style="fill:blue">tipo</text><path d="M440 1390 C460 1390 440 1490 460 1490" style="fill:transparent;stroke:black" /><rect x="526" y="1470" width="137" height="40" style="fill:green;stroke:black;stroke-width:1" /><text x="536" y="1480" font-size="8" style="fill:white">Arquitectónica</text><rect x="460" y="1520" width="200" height="40" style="fill:white;stroke:black;stroke-width:1" /><text x="470" y="1530" font-size="10" style="fill:blue">medioTransporte</text><path d="M440 1390 C460 1390 440 1540 460 1540" style="fill:transparent;stroke:black" /><rect x="526" y="1520" width="137" height="40" style="fill:green;stroke:black;stroke-width:1" /><text x="536" y="1530" font-size="8" style="fill:white">Coche y ferry</text><rect x="460" y="1570" width="200" height="40" style="fill:white;stroke:black;stroke-width:1" /><text x="470" y="1580" font-size="10" style="fill:blue">duracion</text><path d="M440 1390 C460 1390 440 1590 460 1590" style="fill:transparent;stroke:black" /><rect x="526" y="1570" width="137" height="40" style="fill:green;stroke:black;stroke-width:1" /><text x="536" y="1580" font-size="8" style="fill:white">1 día</text><rect x="460" y="1620" width="200" height="40" style="fill:white;stroke:black;stroke-width:1" /><text x="470" y="1630" font-size="10" style="fill:blue">agencia</text><path d="M440 1390 C460 1390 440 1640 460 1640" style="fill:transparent;stroke:black" /><rect x="526" y="1620" width="137" height="40" style="fill:green;stroke:black;stroke-width:1" /><text x="536" y="1630" font-size="8" style="fill:white">Sin agencia</text><rect x="460" y="1670" width="200" height="40" style="fill:white;stroke:black;stroke-width:1" /><text x="470" y="1680" font-size="10" style="fill:blue">descripcion</text><path d="M440 1390 C460 1390 440 1690 460 1690" style="fill:transparent;stroke:black" /><rect x="526" y="1670" width="137" height="40" style="fill:green;stroke:black;stroke-width:1" /><text x="536" y="1680" font-size="8" style="fill:white">
            Ruta que combina mar y tierra recorrindo lugares historicos del pais de Túnez y sus playas.
        </text><rect x="460" y="1720" width="200" height="40" style="fill:white;stroke:black;stroke-width:1" /><text x="470" y="1730" font-size="10" style="fill:blue">personasAdecuadas</text><path d="M440 1390 C460 1390 440 1740 460 1740" style="fill:transparent;stroke:black" /><rect x="526" y="1720" width="137" height="40" style="fill:green;stroke:black;stroke-width:1" /><text x="536" y="1730" font-size="8" style="fill:white">Personas en buena forma física</text><rect x="460" y="1770" width="200" height="40" style="fill:white;stroke:black;stroke-width:1" /><text x="470" y="1780" font-size="10" style="fill:blue">lugarInicio</text><path d="M440 1390 C460 1390 440 1790 460 1790" style="fill:transparent;stroke:black" /><rect x="526" y="1770" width="137" height="40" style="fill:green;stroke:black;stroke-width:1" /><text x="536" y="1780" font-size="8" style="fill:white">Sfax</text><rect x="460" y="1820" width="200" height="40" style="fill:white;stroke:black;stroke-width:1" /><text x="470" y="1830" font-size="10" style="fill:blue">direccionInicio</text><path d="M440 1390 C460 1390 440 1840 460 1840" style="fill:transparent;stroke:black" /><rect x="526" y="1820" width="137" height="40" style="fill:green;stroke:black;stroke-width:1" /><text x="536" y="1830" font-size="8" style="fill:white">Jardin de la mère et de l'enfant</text><rect x="460" y="1870" width="200" height="40" style="fill:white;stroke:black;stroke-width:1" /><text x="470" y="1880" font-size="10" style="fill:blue">coordenadas</text><path d="M440 1390 C460 1390 440 1890 460 1890" style="fill:transparent;stroke:black" /><text x="470" y="1890" font-size="8" style="fill:black">longitud: 34.73924059047236</text><text x="470" y="1900" font-size="8" style="fill:black">latitud: 10.760886967134985</text><text x="470" y="1910" font-size="8" style="fill:black">altitud: 0</text><rect x="460" y="1920" width="200" height="40" style="fill:white;stroke:black;stroke-width:1" /><text x="470" y="1930" font-size="10" style="fill:blue">referencia</text><path d="M440 1390 C460 1390 440 1940 460 1940" style="fill:transparent;stroke:black" /><rect x="526" y="1920" width="137" height="40" style="fill:green;stroke:black;stroke-width:1" /><text x="536" y="1930" font-size="8" style="fill:white">https://www.google.com/maps/place/Mother+and+Child+Garden/@34.7389626,10.7584601,17.25z/data=!4m15!1m8!3m7!1s0x12fd337f5e7ef543:0xd671924e714a0275!2zVMO6bmV6!3b1!8m2!3d36.8064948!4d10.1815316!16zL20vMGZ0bjg!3m5!1s0x1301d2d3619d1eed:0x3d3ac9a16d0b5a8b!8m2!3d34.7391014!4d10.7608763!16s%2Fg%2F1ptxglkt0?entry=ttu</text><rect x="460" y="1970" width="200" height="40" style="fill:white;stroke:black;stroke-width:1" /><text x="470" y="1980" font-size="10" style="fill:blue">referencia</text><path d="M440 1390 C460 1390 440 1990 460 1990" style="fill:transparent;stroke:black" /><rect x="526" y="1970" width="137" height="40" style="fill:green;stroke:black;stroke-width:1" /><text x="536" y="1980" font-size="8" style="fill:white">https://www.somoutdoors.com/lugares-donde-viajar/tunez-por-tu-cuenta/</text><rect x="460" y="2020" width="200" height="40" style="fill:white;stroke:black;stroke-width:1" /><text x="470" y="2030" font-size="10" style="fill:blue">referencia</text><path d="M440 1390 C460 1390 440 2040 460 2040" style="fill:transparent;stroke:black" /><rect x="526" y="2020" width="137" height="40" style="fill:green;stroke:black;stroke-width:1" /><text x="536" y="2030" font-size="8" style="fill:white">https://blog-tunez.com/otros-destinos-de-tunez/islas-kerkennah/</text><rect x="460" y="2070" width="200" height="40" style="fill:white;stroke:black;stroke-width:1" /><text x="470" y="2080" font-size="10" style="fill:blue">recomendacion</text><path d="M440 1390 C460 1390 440 2090 460 2090" style="fill:transparent;stroke:black" /><rect x="526" y="2070" width="137" height="40" style="fill:green;stroke:black;stroke-width:1" /><text x="536" y="2080" font-size="8" style="fill:white">7</text><rect x="460" y="2120" width="200" height="40" style="fill:white;stroke:black;stroke-width:1" /><text x="470" y="2130" font-size="10" style="fill:blue">hito</text><path d="M440 1390 C460 1390 440 2140 460 2140" style="fill:transparent;stroke:black" /><rect x="680" y="2120" width="200" height="40" style="fill:white;stroke:black;stroke-width:1" /><text x="690" y="2130" font-size="10" style="fill:blue">nombre</text><path d="M660 2140 C680 2140 660 2140 680 2140" style="fill:transparent;stroke:black" /><rect x="746" y="2120" width="137" height="40" style="fill:green;stroke:black;stroke-width:1" /><text x="756" y="2130" font-size="8" style="fill:white">Anfiteatro en El Djem</text><rect x="680" y="2170" width="200" height="40" style="fill:white;stroke:black;stroke-width:1" /><text x="690" y="2180" font-size="10" style="fill:blue">descripcion</text><path d="M660 2140 C680 2140 660 2190 680 2190" style="fill:transparent;stroke:black" /><rect x="746" y="2170" width="137" height="40" style="fill:green;stroke:black;stroke-width:1" /><text x="756" y="2180" font-size="8" style="fill:white">El anfiteatro en El Djem fue construido por los romanos bajo las órdenes del procónsul Gordiano, quién fue proclamado emperador en Thysdrus alrededor del 238 y era principalmente utilizado para espectáculos de gladiadores y carreras de carros de pequeño formato. </text><rect x="680" y="2220" width="200" height="40" style="fill:white;stroke:black;stroke-width:1" /><text x="690" y="2230" font-size="10" style="fill:blue">coordenadas</text><path d="M660 2140 C680 2140 660 2240 680 2240" style="fill:transparent;stroke:black" /><text x="690" y="2240" font-size="8" style="fill:black">longitud: 35.2982756564453</text><text x="690" y="2250" font-size="8" style="fill:black">latitud: 10.706617336438631</text><text x="690" y="2260" font-size="8" style="fill:black">altitud: 35.3</text><rect x="680" y="2270" width="200" height="40" style="fill:white;stroke:black;stroke-width:1" /><text x="690" y="2280" font-size="10" style="fill:blue">distanciaHitoAnterior</text><path d="M660 2140 C680 2140 660 2290 680 2290" style="fill:transparent;stroke:black" /><text x="690" y="2290" font-size="8" style="fill:black">unidades: km</text><rect x="746" y="2270" width="137" height="40" style="fill:green;stroke:black;stroke-width:1" /><text x="756" y="2280" font-size="8" style="fill:white">74,2</text><rect x="680" y="2320" width="200" height="40" style="fill:white;stroke:black;stroke-width:1" /><text x="690" y="2330" font-size="10" style="fill:blue">foto</text><path d="M660 2140 C680 2140 660 2340 680 2340" style="fill:transparent;stroke:black" /><rect x="746" y="2320" width="137" height="40" style="fill:green;stroke:black;stroke-width:1" /><text x="756" y="2330" font-size="8" style="fill:white">multimedia/djemjpg.jpg</text><rect x="460" y="2420" width="200" height="40" style="fill:white;stroke:black;stroke-width:1" /><text x="470" y="2430" font-size="10" style="fill:blue">hito</text><path d="M440 1390 C460 1390 440 2440 460 2440" style="fill:transparent;stroke:black" /><rect x="680" y="2420" width="200" height="40" style="fill:white;stroke:black;stroke-width:1" /><text x="690" y="2430" font-size="10" style="fill:blue">nombre</text><path d="M660 2440 C680 2440 660 2440 680 2440" style="fill:transparent;stroke:black" /><rect x="746" y="2420" width="137" height="40" style="fill:green;stroke:black;stroke-width:1" /><text x="756" y="2430" font-size="8" style="fill:white">Islas Kerkennah</text><rect x="680" y="2470" width="200" height="40" style="fill:white;stroke:black;stroke-width:1" /><text x="690" y="2480" font-size="10" style="fill:blue">descripcion</text><path d="M660 2440 C680 2440 660 2490 680 2490" style="fill:transparent;stroke:black" /><rect x="746" y="2470" width="137" height="40" style="fill:green;stroke:black;stroke-width:1" /><text x="756" y="2480" font-size="8" style="fill:white">La sensación de pasar unos días en las islas de Kerkennah es similar a la de perderse en otras orillas del Mar Mediterráneo, ya sea en Sicilia, Cerdeña o cualquier isla griega.</text><rect x="680" y="2520" width="200" height="40" style="fill:white;stroke:black;stroke-width:1" /><text x="690" y="2530" font-size="10" style="fill:blue">coordenadas</text><path d="M660 2440 C680 2440 660 2540 680 2540" style="fill:transparent;stroke:black" /><text x="690" y="2540" font-size="8" style="fill:black">longitud: 34.72991197588472</text><text x="690" y="2550" font-size="8" style="fill:black">latitud: 11.140731886583168</text><text x="690" y="2560" font-size="8" style="fill:black">altitud: 0</text><rect x="680" y="2570" width="200" height="40" style="fill:white;stroke:black;stroke-width:1" /><text x="690" y="2580" font-size="10" style="fill:blue">distanciaHitoAnterior</text><path d="M660 2440 C680 2440 660 2590 680 2590" style="fill:transparent;stroke:black" /><text x="690" y="2590" font-size="8" style="fill:black">unidades: km</text><rect x="746" y="2570" width="137" height="40" style="fill:green;stroke:black;stroke-width:1" /><text x="756" y="2580" font-size="8" style="fill:white">120km</text><rect x="680" y="2620" width="200" height="40" style="fill:white;stroke:black;stroke-width:1" /><text x="690" y="2630" font-size="10" style="fill:blue">foto</text><path d="M660 2440 C680 2440 660 2640 680 2640" style="fill:transparent;stroke:black" /><rect x="746" y="2620" width="137" height="40" style="fill:green;stroke:black;stroke-width:1" /><text x="756" y="2630" font-size="8" style="fill:white">multimedia/kerkennah.jpg</text><rect x="240" y="2770" width="200" height="40" style="fill:white;stroke:black;stroke-width:1" /><text x="250" y="2780" font-size="10" style="fill:blue">ruta</text><path d="M220 40 C240 40 220 2790 240 2790" style="fill:transparent;stroke:black" /><text x="250" y="2790" font-size="8" style="fill:black">fechaInicio: Cualquier día</text><text x="250" y="2800" font-size="8" style="fill:black">horaInicio: 7:30</text><rect x="460" y="2770" width="200" height="40" style="fill:white;stroke:black;stroke-width:1" /><text x="470" y="2780" font-size="10" style="fill:blue">nombre</text><path d="M440 2790 C460 2790 440 2790 460 2790" style="fill:transparent;stroke:black" /><rect x="526" y="2770" width="137" height="40" style="fill:green;stroke:black;stroke-width:1" /><text x="536" y="2780" font-size="8" style="fill:white">Douz</text><rect x="460" y="2820" width="200" height="40" style="fill:white;stroke:black;stroke-width:1" /><text x="470" y="2830" font-size="10" style="fill:blue">tipo</text><path d="M440 2790 C460 2790 440 2840 460 2840" style="fill:transparent;stroke:black" /><rect x="526" y="2820" width="137" height="40" style="fill:green;stroke:black;stroke-width:1" /><text x="536" y="2830" font-size="8" style="fill:white">Paisajística</text><rect x="460" y="2870" width="200" height="40" style="fill:white;stroke:black;stroke-width:1" /><text x="470" y="2880" font-size="10" style="fill:blue">medioTransporte</text><path d="M440 2790 C460 2790 440 2890 460 2890" style="fill:transparent;stroke:black" /><rect x="526" y="2870" width="137" height="40" style="fill:green;stroke:black;stroke-width:1" /><text x="536" y="2880" font-size="8" style="fill:white">A pie y camello</text><rect x="460" y="2920" width="200" height="40" style="fill:white;stroke:black;stroke-width:1" /><text x="470" y="2930" font-size="10" style="fill:blue">duracion</text><path d="M440 2790 C460 2790 440 2940 460 2940" style="fill:transparent;stroke:black" /><rect x="526" y="2920" width="137" height="40" style="fill:green;stroke:black;stroke-width:1" /><text x="536" y="2930" font-size="8" style="fill:white">Día completo</text><rect x="460" y="2970" width="200" height="40" style="fill:white;stroke:black;stroke-width:1" /><text x="470" y="2980" font-size="10" style="fill:blue">agencia</text><path d="M440 2790 C460 2790 440 2990 460 2990" style="fill:transparent;stroke:black" /><rect x="526" y="2970" width="137" height="40" style="fill:green;stroke:black;stroke-width:1" /><text x="536" y="2980" font-size="8" style="fill:white">sahara-tunisia</text><rect x="460" y="3020" width="200" height="40" style="fill:white;stroke:black;stroke-width:1" /><text x="470" y="3030" font-size="10" style="fill:blue">descripcion</text><path d="M440 2790 C460 2790 440 3040 460 3040" style="fill:transparent;stroke:black" /><rect x="526" y="3020" width="137" height="40" style="fill:green;stroke:black;stroke-width:1" /><text x="536" y="3030" font-size="8" style="fill:white">
            Ruta que combina mar y tierra recorrindo lugares historicos del pais de Túnez y sus playas.
        </text><rect x="460" y="3070" width="200" height="40" style="fill:white;stroke:black;stroke-width:1" /><text x="470" y="3080" font-size="10" style="fill:blue">personasAdecuadas</text><path d="M440 2790 C460 2790 440 3090 460 3090" style="fill:transparent;stroke:black" /><rect x="526" y="3070" width="137" height="40" style="fill:green;stroke:black;stroke-width:1" /><text x="536" y="3080" font-size="8" style="fill:white">Personas en buena forma física</text><rect x="460" y="3120" width="200" height="40" style="fill:white;stroke:black;stroke-width:1" /><text x="470" y="3130" font-size="10" style="fill:blue">lugarInicio</text><path d="M440 2790 C460 2790 440 3140 460 3140" style="fill:transparent;stroke:black" /><rect x="526" y="3120" width="137" height="40" style="fill:green;stroke:black;stroke-width:1" /><text x="536" y="3130" font-size="8" style="fill:white">Sahara-tunisia</text><rect x="460" y="3170" width="200" height="40" style="fill:white;stroke:black;stroke-width:1" /><text x="470" y="3180" font-size="10" style="fill:blue">direccionInicio</text><path d="M440 2790 C460 2790 440 3190 460 3190" style="fill:transparent;stroke:black" /><rect x="526" y="3170" width="137" height="40" style="fill:green;stroke:black;stroke-width:1" /><text x="536" y="3180" font-size="8" style="fill:white">Souk Douz, 4260, Túnez</text><rect x="460" y="3220" width="200" height="40" style="fill:white;stroke:black;stroke-width:1" /><text x="470" y="3230" font-size="10" style="fill:blue">coordenadas</text><path d="M440 2790 C460 2790 440 3240 460 3240" style="fill:transparent;stroke:black" /><text x="470" y="3240" font-size="8" style="fill:black">longitud: 33.457376514557566</text><text x="470" y="3250" font-size="8" style="fill:black">latitud: 9.025019626580125</text><text x="470" y="3260" font-size="8" style="fill:black">altitud: 64</text><rect x="460" y="3270" width="200" height="40" style="fill:white;stroke:black;stroke-width:1" /><text x="470" y="3280" font-size="10" style="fill:blue">referencia</text><path d="M440 2790 C460 2790 440 3290 460 3290" style="fill:transparent;stroke:black" /><rect x="526" y="3270" width="137" height="40" style="fill:green;stroke:black;stroke-width:1" /><text x="536" y="3280" font-size="8" style="fill:white">https://www.sahara-tunisia.com/</text><rect x="460" y="3320" width="200" height="40" style="fill:white;stroke:black;stroke-width:1" /><text x="470" y="3330" font-size="10" style="fill:blue">referencia</text><path d="M440 2790 C460 2790 440 3340 460 3340" style="fill:transparent;stroke:black" /><rect x="526" y="3320" width="137" height="40" style="fill:green;stroke:black;stroke-width:1" /><text x="536" y="3330" font-size="8" style="fill:white">https://es.wikipedia.org/wiki/S%C3%A1hara</text><rect x="460" y="3370" width="200" height="40" style="fill:white;stroke:black;stroke-width:1" /><text x="470" y="3380" font-size="10" style="fill:blue">referencia</text><path d="M440 2790 C460 2790 440 3390 460 3390" style="fill:transparent;stroke:black" /><rect x="526" y="3370" width="137" height="40" style="fill:green;stroke:black;stroke-width:1" /><text x="536" y="3380" font-size="8" style="fill:white">https://www.economiadigital.es/tendenciashoy/destinos/tunez-de-la-capital-al-desierto-en-un-roadtrip-de-10-dias_20076846_102.html</text><rect x="460" y="3420" width="200" height="40" style="fill:white;stroke:black;stroke-width:1" /><text x="470" y="3430" font-size="10" style="fill:blue">referencia</text><path d="M440 2790 C460 2790 440 3440 460 3440" style="fill:transparent;stroke:black" /><rect x="526" y="3420" width="137" height="40" style="fill:green;stroke:black;stroke-width:1" /><text x="536" y="3430" font-size="8" style="fill:white">https://www.google.com/maps/place/Sahara+Desert+Tunisia+%E1%83%A6/@33.4578928,9.0217406,16.75z/data=!4m15!1m8!3m7!1s0x125687f0a48f8aa3:0xf20af06731ebe68d!2zRG91eiwgVMO6bmV6!3b1!8m2!3d33.4614354!4d9.0294708!16zL20vMDQzMXo4!3m5!1s0x125687f0052ca891:0x547cf34c40e7aa1f!8m2!3d33.4571621!4d9.0250329!16s%2Fg%2F11ft2cj7zt?entry=ttu</text><rect x="460" y="3470" width="200" height="40" style="fill:white;stroke:black;stroke-width:1" /><text x="470" y="3480" font-size="10" style="fill:blue">recomendacion</text><path d="M440 2790 C460 2790 440 3490 460 3490" style="fill:transparent;stroke:black" /><rect x="526" y="3470" width="137" height="40" style="fill:green;stroke:black;stroke-width:1" /><text x="536" y="3480" font-size="8" style="fill:white">10</text><rect x="460" y="3520" width="200" height="40" style="fill:white;stroke:black;stroke-width:1" /><text x="470" y="3530" font-size="10" style="fill:blue">hito</text><path d="M440 2790 C460 2790 440 3540 460 3540" style="fill:transparent;stroke:black" /><rect x="680" y="3520" width="200" height="40" style="fill:white;stroke:black;stroke-width:1" /><text x="690" y="3530" font-size="10" style="fill:blue">nombre</text><path d="M660 3540 C680 3540 660 3540 680 3540" style="fill:transparent;stroke:black" /><rect x="746" y="3520" width="137" height="40" style="fill:green;stroke:black;stroke-width:1" /><text x="756" y="3530" font-size="8" style="fill:white">Desierto del Sahara</text><rect x="680" y="3570" width="200" height="40" style="fill:white;stroke:black;stroke-width:1" /><text x="690" y="3580" font-size="10" style="fill:blue">descripcion</text><path d="M660 3540 C680 3540 660 3590 680 3590" style="fill:transparent;stroke:black" /><rect x="746" y="3570" width="137" height="40" style="fill:green;stroke:black;stroke-width:1" /><text x="756" y="3580" font-size="8" style="fill:white">El desierto del Sahara es el desierto cálido más grande del mundo, con más de 9 400 000 km2 de superficie. </text><rect x="680" y="3620" width="200" height="40" style="fill:white;stroke:black;stroke-width:1" /><text x="690" y="3630" font-size="10" style="fill:blue">coordenadas</text><path d="M660 3540 C680 3540 660 3640 680 3640" style="fill:transparent;stroke:black" /><text x="690" y="3640" font-size="8" style="fill:black">longitud: 33.479258386747844</text><text x="690" y="3650" font-size="8" style="fill:black">latitud: 9.0708610000714013</text><text x="690" y="3660" font-size="8" style="fill:black">altitud: 63</text><rect x="680" y="3670" width="200" height="40" style="fill:white;stroke:black;stroke-width:1" /><text x="690" y="3680" font-size="10" style="fill:blue">distanciaHitoAnterior</text><path d="M660 3540 C680 3540 660 3690 680 3690" style="fill:transparent;stroke:black" /><text x="690" y="3690" font-size="8" style="fill:black">unidades: km</text><rect x="746" y="3670" width="137" height="40" style="fill:green;stroke:black;stroke-width:1" /><text x="756" y="3680" font-size="8" style="fill:white">6</text><rect x="680" y="3720" width="200" height="40" style="fill:white;stroke:black;stroke-width:1" /><text x="690" y="3730" font-size="10" style="fill:blue">foto</text><path d="M660 3540 C680 3540 660 3740 680 3740" style="fill:transparent;stroke:black" /><rect x="746" y="3720" width="137" height="40" style="fill:green;stroke:black;stroke-width:1" /><text x="756" y="3730" font-size="8" style="fill:white">multimedia/deserto-sahara.jpg</text></svg>